<svg id="mutuus-logo" xmlns="http://www.w3.org/2000/svg" viewBox="0 0 242 92.58"><defs><style>.cls-1,.cls-2{fill:#fff;}.cls-1{stroke:#5f8fbe;stroke-miterlimit:22.93;stroke-width:1.42px;}</style></defs><title>logo</title><path class="cls-1" d="M151.07,40.61Z" transform="translate(-6 -0.5)"/><path class="cls-2" d="M117.61,27.29a9.05,9.05,0,0,1,2.54-6.43,8.65,8.65,0,0,1,13.08.56,8.63,8.63,0,0,1,13.06-.56,9.1,9.1,0,0,1,2.54,6.43c0,4.28,0,8.55,0,12.82,0,.27-.86.49-1.91.49h0c-1,0-1.91-.22-1.91-.49q0-6.41,0-12.82a5.36,5.36,0,0,0-1.43-3.72,4.88,4.88,0,0,0-7.14-.11,5.59,5.59,0,0,0-1.34,3.84q0,6.41,0,12.82c0,.27-.86.49-1.91.49h0c-1,0-1.91-.22-1.91-.49q0-6.41,0-12.82A5.63,5.63,0,0,0,130,23.45a4.85,4.85,0,0,0-7.12.11,5.39,5.39,0,0,0-1.43,3.72q0,6.41,0,12.82c0,.27-.86.49-1.91.49s-1.91-.22-1.91-.49q0-6.41,0-12.82Z" transform="translate(-6 -0.5)"/><path class="cls-2" d="M179.13,22.11l0,9.55a5.19,5.19,0,0,0,2,4.09,8.15,8.15,0,0,0,4.43,1.33c.27,0,.41.9.3,1.95h0c-.1,1-.41,1.87-.68,1.85h0c-5.66-.05-9.86-2.84-9.87-9.22q0-10,0-20c0-.27.86-.49,1.91-.49h0c1,0,1.91.22,1.91.49v6.6h5.63c.27,0,.49.86.49,1.91h0c0,1-.22,1.91-.49,1.91Z" transform="translate(-6 -0.5)"/><path class="cls-2" d="M239,22.68a2.5,2.5,0,0,0-.89,1.91c0,1.54,1.35,2.3,2.63,2.86a36.26,36.26,0,0,1,4.61,2.1,6.2,6.2,0,0,1,.57,9.71c-1.68,1.56-3.45,1.91-5.79,1.93h-5.65c-.27,0-.49-.81-.49-1.8h0c0-1,.22-1.8.49-1.8h6c1.75,0,3.55-1,3.55-2.82,0-2.39-4.17-3.54-6-4.36a10.74,10.74,0,0,1-1.25-.61c-3.29-2.22-3.33-7.14-.5-9.72a7,7,0,0,1,3.44-1.72,5.91,5.91,0,0,1,1.07-.15h6.49c.27,0,.49.81.49,1.8h0c0,1-.22,1.79-.49,1.79h-6.37a2.66,2.66,0,0,0-1.92.88Z" transform="translate(-6 -0.5)"/><path class="cls-2" d="M172.26,31.55a9.48,9.48,0,0,1-3,6.89,9.51,9.51,0,0,1-13.81,0,9.48,9.48,0,0,1-3-6.89q0-6.46,0-12.92c0-.27.86-.49,1.91-.49h0c1,0,1.91.22,1.91.49q0,6.46,0,12.92a6.09,6.09,0,0,0,12.19,0c0-4.31,0-8.61,0-12.92,0-.27.86-.49,1.91-.49h0c1,0,1.91.22,1.91.49q0,6.46,0,12.92Z" transform="translate(-6 -0.5)"/><path class="cls-2" d="M208,31.66a9.48,9.48,0,0,1-3,6.89,9.51,9.51,0,0,1-13.81,0,9.48,9.48,0,0,1-3-6.89c0-4.38,0-5.73,0-10.1V18.74c0-.27.86-.49,1.91-.49h0c1,0,1.91.22,1.91.49q0,6.46,0,12.92a6.09,6.09,0,0,0,12.19,0c0-4.38,0-5.72,0-10.1a.29.29,0,0,1,0-.08V18.74c0-.27.86-.49,1.91-.49h0c1,0,1.91.22,1.91.49q0,6.46,0,12.92Z" transform="translate(-6 -0.5)"/><path class="cls-2" d="M231.34,31.66a9.48,9.48,0,0,1-3,6.89,9.51,9.51,0,0,1-13.81,0,9.48,9.48,0,0,1-3-6.89c0-4.38,0-5.73,0-10.1V18.74c0-.27.86-.49,1.91-.49h0c1,0,1.91.22,1.91.49q0,6.46,0,12.92a6.09,6.09,0,0,0,12.19,0c0-4.38,0-5.72,0-10.1a.29.29,0,0,1,0-.08V18.74c0-.27.86-.49,1.91-.49h0c1,0,1.91.22,1.91.49q0,6.46,0,12.92Z" transform="translate(-6 -0.5)"/><path class="cls-2" d="M118.4,58.43l1.59-.14a3.5,3.5,0,0,0,.52,1.57,2.87,2.87,0,0,0,1.28,1,4.84,4.84,0,0,0,2,.38,4.68,4.68,0,0,0,1.7-.29,2.36,2.36,0,0,0,1.1-.78,1.82,1.82,0,0,0,.36-1.09,1.66,1.66,0,0,0-.35-1,2.57,2.57,0,0,0-1.15-.75,22.35,22.35,0,0,0-2.26-.62,11.61,11.61,0,0,1-2.46-.79,3.44,3.44,0,0,1-1.36-1.18,2.9,2.9,0,0,1-.45-1.58,3.23,3.23,0,0,1,.55-1.8A3.38,3.38,0,0,1,121,50a6,6,0,0,1,2.33-.43,6.38,6.38,0,0,1,2.49.46,3.6,3.6,0,0,1,1.66,1.34,3.85,3.85,0,0,1,.62,2l-1.61.12a2.61,2.61,0,0,0-.88-1.82,3.43,3.43,0,0,0-2.22-.62,3.56,3.56,0,0,0-2.23.56,1.68,1.68,0,0,0-.7,1.35A1.45,1.45,0,0,0,121,54.1a6.69,6.69,0,0,0,2.54.91,16.8,16.8,0,0,1,2.82.81,3.86,3.86,0,0,1,1.64,1.3,3.16,3.16,0,0,1,.53,1.81,3.46,3.46,0,0,1-.58,1.91,3.83,3.83,0,0,1-1.67,1.4,5.83,5.83,0,0,1-2.45.5,7.32,7.32,0,0,1-2.89-.5,4.05,4.05,0,0,1-1.83-1.51A4.29,4.29,0,0,1,118.4,58.43Z" transform="translate(-6 -0.5)"/><path class="cls-2" d="M134,61.12l.23,1.38a5.82,5.82,0,0,1-1.18.14,2.67,2.67,0,0,1-1.32-.27,1.5,1.5,0,0,1-.66-.71,5.59,5.59,0,0,1-.19-1.84v-5.3h-1.15V53.3h1.15V51l1.55-.94V53.3H134v1.21h-1.57V59.9a2.72,2.72,0,0,0,.08.86.65.65,0,0,0,.27.3,1,1,0,0,0,.53.11A5.1,5.1,0,0,0,134,61.12Z" transform="translate(-6 -0.5)"/><path class="cls-2" d="M141.61,62.51V61.16a3.37,3.37,0,0,1-2.92,1.56,3.73,3.73,0,0,1-1.52-.31,2.5,2.5,0,0,1-1-.79,2.93,2.93,0,0,1-.48-1.16,7.92,7.92,0,0,1-.1-1.46V53.3h1.56v5.11a9.1,9.1,0,0,0,.1,1.65,1.63,1.63,0,0,0,.62,1,1.94,1.94,0,0,0,1.18.35,2.57,2.57,0,0,0,1.32-.36,2,2,0,0,0,.87-1,4.92,4.92,0,0,0,.26-1.8V53.3H143v9.21Z" transform="translate(-6 -0.5)"/><path class="cls-2" d="M151.43,62.51V61.35a2.87,2.87,0,0,1-2.58,1.37,3.61,3.61,0,0,1-2-.61,4,4,0,0,1-1.43-1.7,5.86,5.86,0,0,1-.51-2.5,6.55,6.55,0,0,1,.46-2.5,3.63,3.63,0,0,1,1.38-1.72,3.69,3.69,0,0,1,2.06-.6,3.07,3.07,0,0,1,1.48.35,3.1,3.1,0,0,1,1.06.92V49.79h1.55V62.51Zm-4.94-4.6a4,4,0,0,0,.75,2.65,2.25,2.25,0,0,0,1.76.88,2.21,2.21,0,0,0,1.74-.84,3.86,3.86,0,0,0,.72-2.56,4.33,4.33,0,0,0-.73-2.78,2.24,2.24,0,0,0-1.8-.89,2.16,2.16,0,0,0-1.74.85A4.2,4.2,0,0,0,146.49,57.91Z" transform="translate(-6 -0.5)"/><path class="cls-2" d="M161.64,59.55l1.61.2a3.94,3.94,0,0,1-1.41,2.2,4.79,4.79,0,0,1-5.84-.46A4.87,4.87,0,0,1,154.81,58a5.09,5.09,0,0,1,1.2-3.61,4.05,4.05,0,0,1,3.11-1.28,3.94,3.94,0,0,1,3,1.26,5,5,0,0,1,1.17,3.54c0,.09,0,.23,0,.42h-6.87a3.54,3.54,0,0,0,.86,2.33,2.56,2.56,0,0,0,1.93.81,2.39,2.39,0,0,0,1.47-.45A3,3,0,0,0,161.64,59.55ZM156.51,57h5.14a3.12,3.12,0,0,0-.59-1.74,2.39,2.39,0,0,0-1.94-.9,2.48,2.48,0,0,0-1.81.72A2.85,2.85,0,0,0,156.51,57Z" transform="translate(-6 -0.5)"/><path class="cls-2" d="M165.22,62.51V53.3h1.41v1.31a3.31,3.31,0,0,1,2.93-1.52,3.85,3.85,0,0,1,1.53.3,2.41,2.41,0,0,1,1,.79,3,3,0,0,1,.49,1.15,9,9,0,0,1,.09,1.52v5.67h-1.56V56.91a4.22,4.22,0,0,0-.18-1.43,1.51,1.51,0,0,0-.65-.75,2.06,2.06,0,0,0-1.09-.28,2.53,2.53,0,0,0-1.72.63,3.12,3.12,0,0,0-.72,2.4v5Z" transform="translate(-6 -0.5)"/><path class="cls-2" d="M178.51,61.12l.23,1.38a5.83,5.83,0,0,1-1.18.14,2.67,2.67,0,0,1-1.32-.27,1.5,1.5,0,0,1-.66-.71,5.59,5.59,0,0,1-.19-1.84v-5.3h-1.15V53.3h1.15V51l1.55-.94V53.3h1.57v1.21h-1.57V59.9a2.72,2.72,0,0,0,.08.86.65.65,0,0,0,.27.3,1,1,0,0,0,.53.11A5.09,5.09,0,0,0,178.51,61.12Z" transform="translate(-6 -0.5)"/><path class="cls-2" d="M179.43,58.69V57.12h4.8v1.57Z" transform="translate(-6 -0.5)"/><path class="cls-2" d="M195.23,58.05l1.68.43a5.67,5.67,0,0,1-1.9,3.16,5.24,5.24,0,0,1-3.36,1.09,6,6,0,0,1-3.34-.84,5.23,5.23,0,0,1-2-2.43,8.65,8.65,0,0,1-.67-3.41,7.49,7.49,0,0,1,.76-3.47,5.2,5.2,0,0,1,2.16-2.25,6.31,6.31,0,0,1,3.08-.77,5.22,5.22,0,0,1,3.21,1,5,5,0,0,1,1.81,2.73l-1.66.39a3.93,3.93,0,0,0-1.28-2,3.42,3.42,0,0,0-2.12-.63,4.11,4.11,0,0,0-2.45.7,3.7,3.7,0,0,0-1.38,1.89,7.59,7.59,0,0,0-.4,2.44,7.75,7.75,0,0,0,.47,2.83,3.52,3.52,0,0,0,1.47,1.81,4.13,4.13,0,0,0,2.16.6,3.62,3.62,0,0,0,2.39-.82A4.18,4.18,0,0,0,195.23,58.05Z" transform="translate(-6 -0.5)"/><path class="cls-2" d="M205.09,59.55l1.61.2a3.94,3.94,0,0,1-1.41,2.2,4.79,4.79,0,0,1-5.84-.46A4.87,4.87,0,0,1,198.27,58a5.09,5.09,0,0,1,1.2-3.61,4.06,4.06,0,0,1,3.11-1.28,3.94,3.94,0,0,1,3,1.26,5,5,0,0,1,1.17,3.54c0,.09,0,.23,0,.42h-6.87a3.54,3.54,0,0,0,.86,2.33,2.56,2.56,0,0,0,1.93.81,2.39,2.39,0,0,0,1.47-.45A3,3,0,0,0,205.09,59.55ZM200,57h5.15a3.13,3.13,0,0,0-.59-1.74,2.39,2.39,0,0,0-1.94-.9,2.48,2.48,0,0,0-1.81.72A2.85,2.85,0,0,0,200,57Z" transform="translate(-6 -0.5)"/><path class="cls-2" d="M208.67,62.51V53.3h1.41v1.31A3.31,3.31,0,0,1,213,53.09a3.85,3.85,0,0,1,1.53.3,2.41,2.41,0,0,1,1,.79,3,3,0,0,1,.49,1.15,9,9,0,0,1,.09,1.52v5.67h-1.56V56.91a4.22,4.22,0,0,0-.18-1.43,1.51,1.51,0,0,0-.65-.75,2.06,2.06,0,0,0-1.09-.28,2.53,2.53,0,0,0-1.72.63,3.12,3.12,0,0,0-.72,2.4v5Z" transform="translate(-6 -0.5)"/><path class="cls-2" d="M222,61.12l.23,1.38a5.83,5.83,0,0,1-1.18.14,2.67,2.67,0,0,1-1.32-.27,1.5,1.5,0,0,1-.66-.71,5.59,5.59,0,0,1-.19-1.84v-5.3h-1.15V53.3h1.15V51l1.55-.94V53.3H222v1.21h-1.57V59.9a2.72,2.72,0,0,0,.08.86.65.65,0,0,0,.27.3,1,1,0,0,0,.53.11A5.09,5.09,0,0,0,222,61.12Z" transform="translate(-6 -0.5)"/><path class="cls-2" d="M223.47,62.51V53.3h1.41v1.4a3.81,3.81,0,0,1,1-1.29,1.73,1.73,0,0,1,1-.31,3,3,0,0,1,1.61.5L227.94,55a2.24,2.24,0,0,0-1.15-.34,1.49,1.49,0,0,0-.92.31,1.67,1.67,0,0,0-.58.85,6.1,6.1,0,0,0-.26,1.82v4.82Z" transform="translate(-6 -0.5)"/><path class="cls-2" d="M235.71,59.55l1.61.2a3.94,3.94,0,0,1-1.41,2.2,4.79,4.79,0,0,1-5.84-.46A4.87,4.87,0,0,1,228.89,58a5.09,5.09,0,0,1,1.2-3.61,4.06,4.06,0,0,1,3.11-1.28,3.94,3.94,0,0,1,3,1.26,5,5,0,0,1,1.17,3.54c0,.09,0,.23,0,.42H230.5a3.54,3.54,0,0,0,.86,2.33,2.56,2.56,0,0,0,1.93.81,2.39,2.39,0,0,0,1.47-.45A3,3,0,0,0,235.71,59.55ZM230.59,57h5.15a3.13,3.13,0,0,0-.59-1.74,2.39,2.39,0,0,0-1.94-.9,2.48,2.48,0,0,0-1.81.72A2.85,2.85,0,0,0,230.59,57Z" transform="translate(-6 -0.5)"/><path class="cls-2" d="M245.27,62.51V61.35a2.86,2.86,0,0,1-2.58,1.37,3.61,3.61,0,0,1-2-.61,4,4,0,0,1-1.43-1.7,5.87,5.87,0,0,1-.51-2.5,6.56,6.56,0,0,1,.46-2.5,3.63,3.63,0,0,1,1.38-1.72,3.69,3.69,0,0,1,2.06-.6,3.07,3.07,0,0,1,2.54,1.27V49.79h1.55V62.51Zm-4.94-4.6a4,4,0,0,0,.75,2.65,2.25,2.25,0,0,0,1.76.88,2.21,2.21,0,0,0,1.74-.84,3.86,3.86,0,0,0,.72-2.56,4.33,4.33,0,0,0-.73-2.78,2.24,2.24,0,0,0-1.8-.89,2.17,2.17,0,0,0-1.74.85A4.2,4.2,0,0,0,240.33,57.91Z" transform="translate(-6 -0.5)"/><path class="cls-2" d="M118.94,78.55v-13h1.72V77h6.41v1.54Z" transform="translate(-6 -0.5)"/><path class="cls-2" d="M135.37,75.51l1.65.2A4,4,0,0,1,135.58,78a4.9,4.9,0,0,1-6-.48,5,5,0,0,1-1.21-3.57,5.21,5.21,0,0,1,1.23-3.69,4.15,4.15,0,0,1,3.18-1.31,4,4,0,0,1,3.09,1.29,5.12,5.12,0,0,1,1.2,3.62c0,.09,0,.24,0,.43h-7a3.62,3.62,0,0,0,.88,2.38,2.61,2.61,0,0,0,2,.83,2.44,2.44,0,0,0,1.5-.46A3.06,3.06,0,0,0,135.37,75.51Zm-5.25-2.58h5.26a3.2,3.2,0,0,0-.6-1.78,2.45,2.45,0,0,0-2-.92A2.54,2.54,0,0,0,131,71,2.92,2.92,0,0,0,130.12,72.93Z" transform="translate(-6 -0.5)"/><path class="cls-2" d="M145.18,77.39a6,6,0,0,1-1.71,1.07,5,5,0,0,1-1.76.31,3.43,3.43,0,0,1-2.39-.76,2.5,2.5,0,0,1-.83-1.94,2.63,2.63,0,0,1,1.14-2.18,3.88,3.88,0,0,1,1.15-.52,11.41,11.41,0,0,1,1.42-.24,14.63,14.63,0,0,0,2.85-.55c0-.22,0-.36,0-.42a1.76,1.76,0,0,0-.45-1.38,2.67,2.67,0,0,0-1.82-.54,2.82,2.82,0,0,0-1.66.4,2.41,2.41,0,0,0-.79,1.4l-1.56-.21a3.88,3.88,0,0,1,.7-1.62,3.08,3.08,0,0,1,1.41-.95,6.3,6.3,0,0,1,2.14-.33,5.68,5.68,0,0,1,2,.28,2.59,2.59,0,0,1,1.11.72,2.52,2.52,0,0,1,.5,1.09,9,9,0,0,1,.08,1.47V74.6a22.57,22.57,0,0,0,.1,2.82,3.55,3.55,0,0,0,.4,1.13H145.5A3.38,3.38,0,0,1,145.18,77.39ZM145,73.82a11.7,11.7,0,0,1-2.61.6,6.06,6.06,0,0,0-1.39.32,1.39,1.39,0,0,0-.63.52,1.41,1.41,0,0,0,.26,1.82,2.08,2.08,0,0,0,1.42.43,3.29,3.29,0,0,0,1.64-.4,2.49,2.49,0,0,0,1.06-1.1,3.86,3.86,0,0,0,.26-1.6Z" transform="translate(-6 -0.5)"/><path class="cls-2" d="M149.12,78.55V69.12h1.44v1.43a3.9,3.9,0,0,1,1-1.32,1.77,1.77,0,0,1,1-.32,3.12,3.12,0,0,1,1.64.51l-.55,1.48a2.28,2.28,0,0,0-1.17-.35,1.52,1.52,0,0,0-.94.32,1.71,1.71,0,0,0-.59.87,6.22,6.22,0,0,0-.27,1.86v4.94Z" transform="translate(-6 -0.5)"/><path class="cls-2" d="M155.2,78.55V69.12h1.44v1.34a3.39,3.39,0,0,1,3-1.55,3.93,3.93,0,0,1,1.57.31,2.46,2.46,0,0,1,1.07.8,3.09,3.09,0,0,1,.5,1.18,9.28,9.28,0,0,1,.09,1.55v5.8h-1.6V72.81a4.3,4.3,0,0,0-.19-1.46,1.53,1.53,0,0,0-.66-.77,2.1,2.1,0,0,0-1.11-.29,2.59,2.59,0,0,0-1.76.65,3.2,3.2,0,0,0-.74,2.46v5.15Z" transform="translate(-6 -0.5)"/><path class="cls-2" d="M165.32,67.37V65.53h1.6v1.84Zm0,11.18V69.12h1.6v9.43Z" transform="translate(-6 -0.5)"/><path class="cls-2" d="M169.35,78.55V69.12h1.44v1.34a3.39,3.39,0,0,1,3-1.55,3.94,3.94,0,0,1,1.57.31,2.46,2.46,0,0,1,1.07.8,3.09,3.09,0,0,1,.5,1.18,9.19,9.19,0,0,1,.09,1.55v5.8h-1.6V72.81a4.3,4.3,0,0,0-.19-1.46,1.53,1.53,0,0,0-.66-.77,2.11,2.11,0,0,0-1.11-.29,2.59,2.59,0,0,0-1.76.65,3.2,3.2,0,0,0-.74,2.46v5.15Z" transform="translate(-6 -0.5)"/><path class="cls-2" d="M179.17,79.33l1.55.23a1.48,1.48,0,0,0,.54,1,2.66,2.66,0,0,0,1.62.44,2.86,2.86,0,0,0,1.71-.44,2.19,2.19,0,0,0,.82-1.24,10.2,10.2,0,0,0,.12-2.05,3.29,3.29,0,0,1-2.61,1.23,3.56,3.56,0,0,1-3-1.4,5.4,5.4,0,0,1-1.07-3.36,6.27,6.27,0,0,1,.49-2.49,3.91,3.91,0,0,1,1.42-1.76,3.82,3.82,0,0,1,2.18-.62,3.38,3.38,0,0,1,2.75,1.35V69.12h1.47v8.15a7.75,7.75,0,0,1-.45,3.12,3.28,3.28,0,0,1-1.42,1.45,4.93,4.93,0,0,1-2.39.53,4.51,4.51,0,0,1-2.73-.76A2.57,2.57,0,0,1,179.17,79.33Zm1.32-5.66a4.09,4.09,0,0,0,.74,2.71,2.43,2.43,0,0,0,3.69,0,4,4,0,0,0,.75-2.66,3.87,3.87,0,0,0-.77-2.61,2.38,2.38,0,0,0-1.85-.88,2.31,2.31,0,0,0-1.81.87A3.84,3.84,0,0,0,180.49,73.67Z" transform="translate(-6 -0.5)"/><path class="cls-2" d="M204.11,74l1.72.43a5.8,5.8,0,0,1-1.95,3.24,5.37,5.37,0,0,1-3.44,1.11,6.18,6.18,0,0,1-3.42-.86,5.35,5.35,0,0,1-2-2.48,8.85,8.85,0,0,1-.69-3.49,7.68,7.68,0,0,1,.78-3.55,5.33,5.33,0,0,1,2.21-2.3,6.46,6.46,0,0,1,3.16-.79,5.34,5.34,0,0,1,3.28,1,5.16,5.16,0,0,1,1.86,2.8l-1.7.4a4,4,0,0,0-1.31-2.07,3.5,3.5,0,0,0-2.17-.65,4.21,4.21,0,0,0-2.51.72,3.8,3.8,0,0,0-1.42,1.93,7.77,7.77,0,0,0-.41,2.5,8,8,0,0,0,.48,2.9,3.6,3.6,0,0,0,1.51,1.85,4.22,4.22,0,0,0,2.21.61,3.7,3.7,0,0,0,2.45-.83A4.27,4.27,0,0,0,204.11,74Z" transform="translate(-6 -0.5)"/><path class="cls-2" d="M214.21,75.51l1.65.2A4,4,0,0,1,214.41,78a4.9,4.9,0,0,1-6-.48,5,5,0,0,1-1.21-3.57,5.21,5.21,0,0,1,1.22-3.69,4.15,4.15,0,0,1,3.18-1.31,4,4,0,0,1,3.09,1.29,5.11,5.11,0,0,1,1.2,3.62c0,.09,0,.24,0,.43h-7a3.62,3.62,0,0,0,.88,2.38,2.62,2.62,0,0,0,2,.83,2.44,2.44,0,0,0,1.5-.46A3.07,3.07,0,0,0,214.21,75.51ZM209,72.93h5.27a3.2,3.2,0,0,0-.6-1.78,2.45,2.45,0,0,0-2-.92,2.54,2.54,0,0,0-1.85.74A2.91,2.91,0,0,0,209,72.93Z" transform="translate(-6 -0.5)"/><path class="cls-2" d="M217.87,78.55V69.12h1.44v1.34a3.39,3.39,0,0,1,3-1.55,3.94,3.94,0,0,1,1.57.31,2.46,2.46,0,0,1,1.07.8,3.09,3.09,0,0,1,.5,1.18,9.19,9.19,0,0,1,.09,1.55v5.8h-1.6V72.81a4.3,4.3,0,0,0-.19-1.46,1.53,1.53,0,0,0-.66-.77,2.11,2.11,0,0,0-1.11-.29,2.59,2.59,0,0,0-1.76.65,3.2,3.2,0,0,0-.74,2.46v5.15Z" transform="translate(-6 -0.5)"/><path class="cls-2" d="M231.47,77.12l.23,1.41a5.93,5.93,0,0,1-1.21.14,2.73,2.73,0,0,1-1.35-.28,1.54,1.54,0,0,1-.67-.72,5.73,5.73,0,0,1-.2-1.89V70.36H227.1V69.12h1.17V66.78l1.59-1v3.29h1.61v1.24h-1.61v5.51a2.78,2.78,0,0,0,.08.88.67.67,0,0,0,.28.31,1.06,1.06,0,0,0,.55.12A5.16,5.16,0,0,0,231.47,77.12Z" transform="translate(-6 -0.5)"/><path class="cls-2" d="M233,78.55V69.12h1.44v1.43a3.9,3.9,0,0,1,1-1.32,1.77,1.77,0,0,1,1-.32,3.12,3.12,0,0,1,1.64.51l-.55,1.48a2.28,2.28,0,0,0-1.17-.35,1.52,1.52,0,0,0-.94.32,1.7,1.7,0,0,0-.59.87,6.22,6.22,0,0,0-.27,1.86v4.94Z" transform="translate(-6 -0.5)"/><path class="cls-2" d="M245.54,75.51l1.65.2A4,4,0,0,1,245.74,78a4.9,4.9,0,0,1-6-.48,5,5,0,0,1-1.21-3.57,5.21,5.21,0,0,1,1.22-3.69A4.15,4.15,0,0,1,243,68.91,4,4,0,0,1,246,70.19a5.11,5.11,0,0,1,1.2,3.62c0,.09,0,.24,0,.43h-7a3.62,3.62,0,0,0,.88,2.38,2.62,2.62,0,0,0,2,.83,2.44,2.44,0,0,0,1.5-.46A3.07,3.07,0,0,0,245.54,75.51Zm-5.25-2.58h5.27a3.2,3.2,0,0,0-.6-1.78,2.45,2.45,0,0,0-2-.92,2.54,2.54,0,0,0-1.85.74A2.91,2.91,0,0,0,240.29,72.93Z" transform="translate(-6 -0.5)"/><circle class="cls-2" cx="37.43" cy="69.61" r="1.49"/><path class="cls-2" d="M55.39,75.2a.61.61,0,0,0-.55.36h0v0A4.88,4.88,0,0,1,47,77h0a.61.61,0,0,0-1,.43,1.09,1.09,0,0,0,.17.43,6.11,6.11,0,0,0,9.8-1.8h0a.6.6,0,0,0,.06-.26A.61.61,0,0,0,55.39,75.2Z" transform="translate(-6 -0.5)"/><path class="cls-2" d="M50.26.5c-22.29,0-35,14.54-40,23A32.7,32.7,0,0,0,7.42,30,34.62,34.62,0,0,0,6,39.37,31.24,31.24,0,0,0,22.29,66.92a20.75,20.75,0,0,0,2.91,9.75,1.18,1.18,0,0,0,.1.18v0h0a1.19,1.19,0,1,0,2-1.34h0c-1.85-3.72-2.26-5.42-2.53-9.91a27.47,27.47,0,0,1-13-11.21,33.66,33.66,0,0,1-3.78-8A26.69,26.69,0,0,1,6.79,39,33.08,33.08,0,0,1,8,29.41a27,27,0,0,1,2.42-5.82l0,0c2.38.26,5.56,1.49,6.83,4.54,4,9.71,10.76,17.49,15.82,21.37a55.16,55.16,0,0,0,14.81,8.6A5.46,5.46,0,0,0,49.2,61.7c1.79,2.24,2.81,7.54.09,11.17a14.65,14.65,0,0,0,8.18-12.46,13.28,13.28,0,1,1-21,10.81,7,7,0,0,0-3.58,12.31,8.42,8.42,0,0,1-10.45.26,49.94,49.94,0,0,0,10,5.73,47.64,47.64,0,0,0,19.07,3.55c19.81,0,45-17,45-46.29A46.23,46.23,0,0,0,50.26.5Zm3,41.93a1,1,0,0,1-2,.3,1.74,1.74,0,0,0-1.59-1.18,1.67,1.67,0,0,0-1.21.52A1,1,0,0,1,47,40.65l0,0a3.49,3.49,0,0,1,2.61-1.12,3.69,3.69,0,0,1,3.51,2.56A.77.77,0,0,1,53.24,42.43Z" transform="translate(-6 -0.5)"/></svg>