<?xml version="1.0" encoding="UTF-8" standalone="no"?>
<svg width="258px" height="93px" viewBox="0 0 258 93" version="1.1" xmlns="http://www.w3.org/2000/svg" xmlns:xlink="http://www.w3.org/1999/xlink">
    <!-- Generator: Sketch 41.2 (35397) - http://www.bohemiancoding.com/sketch -->
    <title>logo</title>
    <desc>Created with Sketch.</desc>
    <defs>
        <polygon id="path-1" points="101.291227 0.0549230769 101.291227 33.9686154 0.165377246 33.9686154 0.165377246 0.0549230769 101.291227 0.0549230769"></polygon>
    </defs>
    <g id="Page-1" stroke="none" stroke-width="1" fill="none" fill-rule="evenodd">
        <g id="首页" transform="translate(-62.000000, -53.000000)">
            <g id="logo" transform="translate(63.000000, 53.000000)">
                <g id="Group" transform="translate(0.000000, 2.000000)">
                    <path d="M79.3405388,26.5262195 C73.2223707,15.255 62.8677586,6.58646341 49.8110991,3.26597561 C46.2154526,2.35134146 42.6066164,1.89365854 39.039181,1.85268293 C24.4103879,2.10914634 10.7993966,9.70756098 2.75663793,21.912439 C4.55446121,22.9862195 8.22228448,25.3679268 11.116681,28.4967073 C13.7421552,31.335 15.7315948,38.3023171 22.5667672,45.7939024 C28.4585129,52.2512195 34.3993534,55.1531707 39.1388362,56.4691463 C39.1388362,56.4691463 43.1462931,64.3145122 40.9348276,68.6762195 C40.9176078,68.8382927 40.8959914,68.9989024 40.8681466,69.1565854 C41.8870474,68.9059756 45.7750647,67.7023171 47.4387931,63.7053659 C47.6227155,62.5697561 47.6472629,61.277561 47.448319,59.7984146 C47.5450431,59.8017073 47.815431,60.0193902 48.176681,60.3790244 C48.2276078,59.5357317 48.1975647,58.6152439 48.0638362,57.6073171 C48.4738147,57.6197561 52.0394181,61.5303659 52.7051293,63.9728049 C53.2939009,66.1386585 53.3466595,68.5046341 52.7435991,70.8691463 C52.6219612,71.3462195 52.473944,71.8082927 52.3065086,72.2597561 C52.2555819,72.5242683 52.197694,72.7935366 52.1295474,73.059878 C50.6120043,79.0086585 45.4445905,82.9946341 39.8444828,83.027561 C38.8530603,83.034878 37.8484483,82.9320732 36.8478664,82.6778049 C31.1209914,81.2213415 27.4135991,75.7931707 27.6246336,69.8476829 C25.9392888,70.895122 24.5536422,72.4902439 23.7490733,74.4640244 C23.6061853,75.3841463 23.5973922,76.299878 23.6992457,77.1852439 C23.8300431,78.1247561 24.0942026,79.0971951 24.4224784,80.0432927 C24.1037284,80.1706098 23.7204957,80.3169512 23.2910991,80.4680488 C23.4284914,81.0585366 23.6054526,81.6504878 23.8084267,82.2347561 C22.6378448,82.6990244 20.6055388,83.420122 18.6087716,83.7256098 C24.7580819,87.1090244 37.9191595,92.1270732 52.5882543,87.3607317 C65.6643319,83.1080488 77.3833405,74.2803659 82.7672845,56.4567073 C85.4129095,46.0386585 83.7477155,35.4812195 79.3405388,26.5262195" id="Fill-1" fill-opacity="0.6" fill="#FFFFFF"></path>
                    <g id="Group-5" stroke="#FFFFFF" stroke-width="1.5" stroke-linecap="round" stroke-linejoin="round">
                        <path d="M1.54025862,22.5793902 C1.54025862,22.5793902 -4.7830819,42.590122 10.0651724,58.9489024 C10.0651724,58.9489024 13.9597845,62.454878 17.2766164,64.314878 C17.2766164,64.314878 12.8459914,73.4443902 20.264806,77.3820732" id="Stroke-2"></path>
                        <path d="M80.0403233,24.9373171 C73.8367888,13.6445122 63.3642026,4.94707317 50.1774784,1.59329268 C46.545194,0.669146341 42.9015517,0.202682927 39.2993103,0.151097561 C23.7912069,0.383414634 9.43756466,8.71829268 1.54538793,22.0002439 C3.0369181,22.850122 7.28728448,25.4268293 10.5645474,28.9353659 C13.2222629,31.7806098 15.2443103,38.7592683 22.1633836,46.2713415 C28.1265733,52.7465854 34.1300647,55.6635366 38.9182759,56.9934146 C38.9182759,56.9934146 43.3371767,65.537561 40.4438793,69.7496341 C40.4438793,69.7496341 49.3043966,68.1760976 47.9290086,58.1539024 C48.3433836,58.1670732 51.847069,61.3646341 52.583125,64.4934146 C53.839806,69.035122 52.6728879,73.9573171 49.4132112,77.3846341 C47.0346767,79.8859756 43.7559483,81.3669512 40.3105172,81.3797561 C39.309569,81.384878 38.2957974,81.2780488 37.2853233,81.0208537 C31.5020259,79.550122 27.7466379,74.1117073 27.946681,68.1592683 C25.8835991,69.4320732 24.2693319,71.5006098 23.6094828,74.0868293 C23.2998922,75.3029268 23.2475,76.5182927 23.3848922,77.6860976 C23.5200862,78.6263415 23.7886422,79.599878 24.1227802,80.547439 C22.0783836,81.3490244 17.4290302,82.9178049 14.8702371,81.7452439 C11.8670259,80.3652439 30.5600647,94.9821951 52.5717672,87.9358537 C66.069181,83.6140244 78.122694,74.4947561 83.3285776,55.8219512 C86.3175,45.1031707 84.6435129,34.1740244 80.0403233,24.9373171 Z" id="Stroke-4"></path>
                    </g>
                    <path d="M33.5068534,68.3839024 C33.6006466,68.0169512 33.3782543,67.6434146 33.0111422,67.550122 C32.6432974,67.4568293 32.2695905,67.6785366 32.1757974,68.0454878 C32.0820043,68.412439 32.3040302,68.7856098 32.671875,68.8792683 C33.0393534,68.972561 33.4130603,68.7512195 33.5068534,68.3839024 Z" id="Stroke-6" stroke="#FFFFFF" stroke-width="1.5" stroke-linecap="round" stroke-linejoin="round"></path>
                    <path d="M36.114375,73.5007317 C36.114375,73.5007317 42.4311207,78.0771951 44.7154957,71.9421951" id="Stroke-7" stroke="#FFFFFF" stroke-width="1.5" stroke-linecap="round" stroke-linejoin="round"></path>
                    <path d="M38.6497198,48.1134146 C38.6497198,48.1134146 40.2863362,46.7367073 41.2616379,48.7778049" id="Stroke-8" stroke="#FFFFFF" stroke-width="1.5" stroke-linecap="round" stroke-linejoin="round"></path>
                    <path d="M33.5068534,68.3839024 C33.6006466,68.0169512 33.3782543,67.6434146 33.0111422,67.550122 C32.6432974,67.4568293 32.2695905,67.6785366 32.1757974,68.0454878 C32.0820043,68.412439 32.3040302,68.7856098 32.671875,68.8792683 C33.0393534,68.972561 33.4130603,68.7512195 33.5068534,68.3839024" id="Fill-9" fill="#FFFFFF"></path>
                    <path d="M36.114375,73.5007317 C36.114375,73.5007317 42.4311207,78.0771951 44.7154957,71.9421951" id="Stroke-10" stroke="#FFFFFF" stroke-width="1.5" stroke-linecap="round" stroke-linejoin="round"></path>
                </g>
                <g id="Group-3" transform="translate(119.000000, 0.000000)">
                    <g id="Group-2">
                        <g id="Group-11">
                            <path d="M2.19615377,32.7822769 C2.10785914,32.7964 2.0167615,32.8037231 1.92426236,32.8037231 C1.82335421,32.8037231 1.7261834,32.7964 1.63088126,32.7822769 L0.289643764,32.7822769 C0.132675531,32.7822769 0.00420450626,32.6384308 0.00420450626,32.4626769 L0.00420450626,30.9300615 L0,17.8719692 C0,15.1122154 0.834828075,12.7055385 2.54092328,10.6807077 C4.25776333,8.64436923 6.33852676,7.64110769 8.7570522,7.64110769 C11.6030358,7.64110769 13.878608,8.86824615 15.6057257,11.3120615 C17.3034119,8.86824615 19.5771155,7.64110769 22.4473917,7.64110769 C24.887874,7.64110769 26.9527538,8.65221538 28.6471698,10.6807077 C30.3453231,12.7123385 31.1880931,15.1122154 31.1880931,17.8719692 C31.1880931,22.7365846 31.1974364,27.5980615 31.1974364,32.4626769 C31.1974364,32.6384308 31.0698997,32.7822769 30.9129315,32.7822769 L29.5908479,32.7822769 C29.5039547,32.7958769 29.4142586,32.8026769 29.3236281,32.8026769 C29.2250558,32.8026769 29.1288193,32.7958769 29.0349187,32.7822769 L27.682002,32.7822769 C27.5250338,32.7822769 27.3965628,32.6384308 27.3965628,32.4626769 C27.3965628,27.5985846 27.3988986,22.7449538 27.3988986,17.8719692 C27.3988986,16.2629846 26.9163147,14.8789231 25.9693665,13.7072308 C24.9981255,12.5083385 23.8316086,11.9078462 22.4534649,11.9078462 C20.9319008,11.9078462 19.723806,12.4602154 18.8394582,13.5796 C17.9481029,14.7084 17.4996222,16.1447692 17.4996222,17.8719692 C17.4996222,22.7355385 17.5042939,27.5985846 17.5042939,32.4626769 C17.5042939,32.6384308 17.3758229,32.7822769 17.2188546,32.7822769 L15.8631349,32.7822769 C15.776709,32.7958769 15.6865457,32.8026769 15.5959152,32.8026769 C15.4973429,32.8026769 15.4015736,32.7958769 15.3076729,32.7822769 L13.9879251,32.7822769 C13.8309569,32.7822769 13.7034202,32.6384308 13.7034202,32.4626769 C13.7034202,27.5980615 13.688938,22.7684923 13.688938,17.8719692 C13.688938,16.1426769 13.233917,14.7152 12.3495692,13.5796 C11.4839081,12.4680615 10.2945,11.9078462 8.7570522,11.9078462 C7.36582779,11.9078462 6.20024522,12.5146154 5.24255213,13.7072308 C4.29934123,14.8825846 3.8116185,16.2645538 3.8116185,17.8719692 C3.8116185,22.7381538 3.80554533,27.6043385 3.80554533,32.4626769 C3.80554533,32.6384308 3.6770743,32.7822769 3.52010607,32.7822769 L2.19615377,32.7822769" id="Fill-11" fill="#FFFFFF"></path>
                            <g id="Group-18" transform="translate(35.971887, 0.000000)">
                                <mask id="mask-2" fill="white">
                                    <use xlink:href="#path-1"></use>
                                </mask>
                                <g id="Clip-13"></g>
                                <path d="M28.6154024,12.3346769 L28.6415638,22.9677846 C28.6457683,24.7368308 29.3927689,26.4750154 30.6508506,27.5384308 C31.7762568,28.4893846 33.4800161,28.5620923 34.9707472,28.6787385 C35.1398618,28.6923385 35.2683328,28.8581538 35.257588,29.0475077 L35.0127923,32.9543692 C35.0020474,33.1432 34.853021,33.2755385 34.6843736,33.2739692 C29.0316485,33.2174769 24.8318139,30.0941846 24.8280766,22.9677846 L24.8103242,0.374523077 C24.8103242,0.198769231 24.9387953,0.0549230769 25.0962307,0.0549230769 L28.3262258,0.0549230769 C28.483194,0.0549230769 28.6116651,0.198769231 28.6116651,0.374523077 C28.6116651,2.93707692 28.6154024,5.50015385 28.6154024,8.06793846 C30.5634903,8.06793846 32.4854168,8.07996923 34.4381764,8.07996923 C34.5951446,8.07996923 34.7226813,8.22329231 34.7226813,8.39904615 L34.7226813,12.0161231 C34.7226813,12.1924 34.5951446,12.3362462 34.4381764,12.3362462 C32.497096,12.3362462 30.5560156,12.3346769 28.6154024,12.3346769" id="Fill-12" fill="#FFFFFF" mask="url(#mask-2)"></path>
                                <path d="M19.9452433,22.9677846 C19.9452433,25.8776615 18.9427022,28.4485846 16.9544379,30.6763692 C14.9806558,32.8858462 12.686864,34 10.068391,34 C7.4359029,34 5.13323497,32.8858462 3.15992003,30.6763692 C1.17212291,28.4485846 0.169114585,25.8797538 0.169114585,22.9677846 C0.169114585,18.0733538 0.165377246,13.1778769 0.165377246,8.28344615 C0.165377246,8.10769231 0.293381103,7.96384615 0.450349337,7.96384615 L3.68127881,7.96384615 C3.83824704,7.96384615 3.9662509,8.10769231 3.9662509,8.28344615 C3.9662509,13.1768308 3.98120026,18.0649846 3.98120026,22.9677846 C3.98120026,24.8472 4.57076547,26.4551385 5.76250941,27.7889846 C6.95331901,29.1223077 8.38612131,29.7824308 10.068391,29.7824308 C11.7352441,29.7824308 13.1554329,29.1128923 14.3537172,27.7889846 C15.5520015,26.4645538 16.1551145,24.8665538 16.1551145,22.9677846 C16.1551145,18.0691692 16.1326905,13.1810154 16.1326905,8.28344615 C16.1326905,8.10769231 16.2611615,7.96384615 16.4181298,7.96384615 L19.6485921,7.96384615 C19.8060275,7.96384615 19.9335642,8.10769231 19.9335642,8.28344615 C19.9335642,13.1878154 19.9452433,18.0587077 19.9452433,22.9677846" id="Fill-14" fill="#FFFFFF" mask="url(#mask-2)"></path>
                                <path d="M98.6241689,31.0707692 C97.2693835,32.5353846 95.6651308,33.2682154 93.8123451,33.2682154 C91.3064593,33.2682154 89.1303938,31.7256615 87.0309436,30.4028 C86.8833188,30.3096923 86.8300617,30.0973231 86.9141518,29.9325538 L88.6295904,26.52 C88.7132133,26.3552308 88.9024161,26.2961231 89.050041,26.3892308 L91.967034,28.2294154 C93.3050013,28.8377538 94.6752032,29.3346769 95.9145982,28.0018769 C96.5018276,27.3705231 96.8022162,26.6152 96.8022162,25.7343385 C96.8022162,24.3392923 95.9529059,23.2057846 94.2711034,22.3338154 C92.7920516,21.5664615 91.6624409,20.9821846 90.88414,20.5731385 C90.0974302,20.1630462 89.6615631,19.9271385 89.5676624,19.8575692 C87.8774509,18.5059385 87.0365497,16.5444 87.0365497,13.9546462 C87.0365497,11.8623385 87.7060005,10.0655692 89.0453693,8.56590769 C90.4015562,7.04846154 92.0137507,6.31301538 93.8814858,6.29 C96.812961,6.25547692 99.0567659,8.35876923 101.182845,10.3443692 C101.31225,10.4652 101.327666,10.6875077 101.220218,10.8313538 L98.9647339,13.8238769 C98.8558839,13.9682462 98.6680826,13.9745231 98.5293339,13.8652 L94.9508319,11.0620308 C94.5906459,10.8909846 94.186079,10.7759077 93.7081667,10.7555077 C92.9163181,10.7215077 92.3767398,10.9704923 91.7792327,11.6264308 C91.1943392,12.2692923 90.9149731,13.0471077 90.9149731,13.9546462 C90.9149731,15.3319077 91.8278181,16.2174769 93.5147595,17.0941538 C94.9811978,17.8557538 96.0949248,18.4499692 96.871357,18.8647692 C101.121646,21.1344 101.964883,27.4604923 98.6241689,31.0707692" id="Fill-15" fill="#FFFFFF" mask="url(#mask-2)"></path>
                                <path d="M59.7946193,22.9677846 C59.7946193,25.8776615 58.7920781,28.4485846 56.8038138,30.6763692 C54.8300317,32.8858462 52.53624,34 49.9177669,34 C47.2852788,34 44.9821438,32.8858462 43.0088288,30.6763692 C41.0214989,28.4485846 40.0175562,25.8797538 40.0175562,22.9677846 C40.0175562,18.0733538 40.0147532,13.1778769 40.0147532,8.28344615 C40.0147532,8.10769231 40.1427571,7.96384615 40.2997253,7.96384615 L43.5306548,7.96384615 C43.687623,7.96384615 43.8151597,8.10769231 43.8151597,8.28344615 L43.8151597,9.95153846 C43.8207657,10.0237231 43.8235687,10.0964308 43.8235687,10.1712308 C43.8235687,14.4228 43.8305762,18.7036615 43.8305762,22.9677846 C43.8305762,24.8472 44.4201414,26.4551385 45.610951,27.7889846 C46.802695,29.1223077 48.2350301,29.7824308 49.9177669,29.7824308 C51.5836857,29.7824308 53.0043417,29.1128923 54.2021588,27.7889846 C55.4013774,26.4645538 56.0044905,24.8665538 56.0044905,22.9677846 C56.0044905,18.0691692 55.9815993,13.1810154 55.9815993,8.28344615 C55.9815993,8.10769231 56.1100703,7.96384615 56.2670385,7.96384615 L59.4970337,7.96384615 C59.6540019,7.96384615 59.7829401,8.10769231 59.7829401,8.28344615 C59.7829401,13.1878154 59.7946193,18.0587077 59.7946193,22.9677846" id="Fill-16" fill="#FFFFFF" mask="url(#mask-2)"></path>
                                <path d="M82.5643565,22.9677846 C82.5643565,25.8776615 81.5618153,28.4485846 79.5735511,30.6763692 C77.5997689,32.8858462 75.3059772,34 72.6884385,34 C70.0550161,34 67.7528153,32.8858462 65.7795004,30.6763692 C63.7912361,28.4485846 62.7882277,25.8797538 62.7882277,22.9677846 C62.7882277,18.0733538 62.7849576,13.1778769 62.7849576,8.28344615 C62.7849576,8.10769231 62.9124943,7.96384615 63.0694625,7.96384615 L66.300392,7.96384615 C66.4573602,7.96384615 66.5858312,8.10769231 66.5858312,8.28344615 C66.5858312,13.1768308 66.6007806,18.0649846 66.6007806,22.9677846 C66.6007806,24.8472 67.1898786,26.4551385 68.3816226,27.7889846 C69.5724322,29.1223077 71.0057016,29.7824308 72.6884385,29.7824308 C74.3543573,29.7824308 75.7750132,29.1128923 76.9732975,27.7889846 C78.1711146,26.4645538 78.7742277,24.8665538 78.7742277,22.9677846 C78.7742277,18.0691692 78.7522708,13.1810154 78.7522708,8.28344615 C78.7522708,8.10769231 78.8802747,7.96384615 79.0372429,7.96384615 L82.2681724,7.96384615 C82.4251406,7.96384615 82.5526773,8.10769231 82.5526773,8.28344615 C82.5526773,13.1878154 82.5643565,18.0587077 82.5643565,22.9677846" id="Fill-17" fill="#FFFFFF" mask="url(#mask-2)"></path>
                            </g>
                        </g>
                    </g>
                    <text id="Student-Centred" font-family="AvenirNextCondensed-Regular, Avenir Next Condensed" font-size="24" font-style="condensed" font-weight="normal" fill="#FFFFFF">
                        <tspan x="0" y="61">Student-Centred</tspan>
                    </text>
                    <text id="Learning-Centre" font-family="AvenirNextCondensed-Regular, Avenir Next Condensed" font-size="24" font-style="condensed" font-weight="normal" fill="#FFFFFF">
                        <tspan x="0" y="85">Learning Centre</tspan>
                    </text>
                </g>
            </g>
        </g>
    </g>
</svg>